<svg id="Capa_1" data-name="Capa 1" xmlns="http://www.w3.org/2000/svg" viewBox="0 0 1722.51 1684.65"><defs><style>.cls-1{fill:#009fe3;}.cls-2,.cls-3,.cls-8,.cls-9{isolation:isolate;font-family:PermanentMarker-Regular, Permanent Marker;}.cls-2,.cls-9{font-size:336.51px;}.cls-2,.cls-3{fill:#0079a3;}.cls-3,.cls-8{font-size:196.2px;}.cls-4{letter-spacing:-0.02em;}.cls-5{letter-spacing:-0.03em;}.cls-6{letter-spacing:-0.02em;}.cls-7{letter-spacing:0em;}</style></defs><g id="Capa_1-2" data-name="Capa 1"><g id="Capa_5" data-name="Capa 5"><path class="cls-1" d="M1722.3,78.3s-7.3-47.6-172-66.7-264.4-19-355.4,33.3S1073.5,216.3,947.8,173.5s-141.3-71-221.1-104.8C614,21.1,531.7,164.5,505.6,199.9s-60.7,140.2-39,178.3S522.9,502,509.9,535.3s-17.3,33.3-125.7,47.6-182.1-33.3-234.1,14.3-69.3,90.5-52,147.6,30.3,57.1,56.3,119,78,90.5,47.7,152.4-72.8,14.3-104,90.5-67.4,108-45.7,150.9,123.7,87.2,45.7,163.4-108.4,85.7-95.4,138.1S33,1684.6,33,1684.6H1722.1l.2-1606.3Z" transform="translate(0.21 0.05)"/></g></g><g id="Capa_2" data-name="Capa 2"><text class="cls-2" transform="translate(787.41 962.81)">2 D</text><text class="cls-3" transform="translate(662.46 1242.93) scale(0.66 1)">A<tspan class="cls-4" x="137.76" y="0">N</tspan><tspan x="268.25" y="0">IMA</tspan><tspan class="cls-5" x="698.21" y="0">C</tspan><tspan class="cls-6" x="812.22" y="0">I</tspan><tspan class="cls-7" x="909.55" y="0">ÓN</tspan></text><text class="cls-8" transform="translate(659.17 1224.66) scale(0.66 1)">A<tspan class="cls-4" x="137.76" y="0">N</tspan><tspan x="268.25" y="0">IMA</tspan><tspan class="cls-5" x="698.21" y="0">C</tspan><tspan class="cls-6" x="812.22" y="0">I</tspan><tspan class="cls-7" x="909.55" y="0">ÓN</tspan></text></g><g id="Capa_3" data-name="Capa 3"><text class="cls-9" transform="translate(771.6 925.37)">2 D</text></g></svg>