<svg id="Capa_1" data-name="Capa 1" xmlns="http://www.w3.org/2000/svg" viewBox="0 0 1924.36 1484.61"><defs><style>.cls-1{fill:#009640;}.cls-2,.cls-3,.cls-8,.cls-9{isolation:isolate;font-family:PermanentMarker-Regular, Permanent Marker;}.cls-2,.cls-8{font-size:336.51px;}.cls-2,.cls-3{fill:#005e26;}.cls-3,.cls-9{font-size:196.2px;}.cls-4{letter-spacing:-0.02em;}.cls-5{letter-spacing:-0.03em;}.cls-6{letter-spacing:-0.02em;}.cls-7{letter-spacing:0em;}</style></defs><g id="Capa_1-2" data-name="Capa 1"><g id="Capa_4" data-name="Capa 4"><path class="cls-1" d="M0,202.1S31.9,106.9,87,78.3,142.2-12.2,214.3,2.1,337.4,40.2,358.6,73.5,401,140.2,460.5,202.1s46.7,114.3,140,109.5,114.6,33.3,250.4-90.5,127.3-185,212.2-187.8,182.5,68.6,207.9,123.4,21.2,173.9,76.4,231,50.9,147.6,123.1,147.6,84.9-57.1,84.9-100-46.7-119,0-167.7c37.7-39.3,102-51.3,152.8,24.9s50.9,119,33.9,166.7-97.6,33.3-127.3,52.4-38.2,28.6-38.2,71.4,4.2,128.6,42.4,157.1,84.9,52.4,148.5,57.1,136.4,52.4,144.9,90.5,33.4,71.4-30.3,133.3-89.1,38.1-182.5,100-97.6,100-76.4,138.1,42.4,66.7,97.6,104.8,46.7,120.7,46.7,120.7H0Z" transform="translate(0 0.01)"/></g><g id="Capa_2" data-name="Capa 2"><text class="cls-2" transform="translate(619.17 810.45)">3 D</text><text class="cls-3" transform="translate(494.23 1090.57) scale(0.66 1)">A<tspan class="cls-4" x="137.76" y="0">N</tspan><tspan x="268.25" y="0">IMA</tspan><tspan class="cls-5" x="698.21" y="0">C</tspan><tspan class="cls-6" x="812.22" y="0">I</tspan><tspan class="cls-7" x="909.55" y="0">ÓN</tspan></text></g><g id="Capa_3" data-name="Capa 3"><text class="cls-8" transform="translate(643.81 782.78)">3 D</text></g></g><g id="Capa_2-2" data-name="Capa 2"><text class="cls-9" transform="translate(514.32 1071.47) scale(0.66 1)">A<tspan class="cls-4" x="137.76" y="0">N</tspan><tspan x="268.25" y="0">IMA</tspan><tspan class="cls-5" x="698.21" y="0">C</tspan><tspan class="cls-6" x="812.22" y="0">I</tspan><tspan class="cls-7" x="909.55" y="0">ÓN</tspan></text></g></svg>