<?xml version="1.0" encoding="utf-8"?>
<!-- Generator: Adobe Illustrator 24.3.0, SVG Export Plug-In . SVG Version: 6.00 Build 0)  -->
<svg version="1.1" xmlns="http://www.w3.org/2000/svg" xmlns:xlink="http://www.w3.org/1999/xlink" x="0px" y="0px"
	 viewBox="0 0 1722.3 1684.7" style="enable-background:new 0 0 1722.3 1684.7;" xml:space="preserve">
<style type="text/css">
	.st0{display:none;}
	.st1{display:inline;fill:#FF16AB;}
	.st2{fill:#009FE3;}
	.st3{display:inline;fill:#009640;}
	.st4{display:inline;fill:#FFED00;}
	.st5{display:inline;fill:#E6332A;}
	.st6{fill:#0079A3;}
	.st7{font-family:'PermanentMarker-Regular';}
	.st8{font-size:336.5127px;}
	.st9{font-size:196.2041px;}
</style>
<g id="Capa_1">
	<g id="Capa_6" class="st0">
		<rect x="-5698.8" y="-1823.8" class="st1" width="4081.9" height="1891.4"/>
	</g>
	<g id="Capa_1_1_" class="st0">
		
			<image style="display:inline;overflow:visible;enable-background:new    ;" width="200" height="200" xlink:href="9D59977E.png"  transform="matrix(4.9535 0 0 4.9535 -4153.4736 -3401.3354)">
		</image>
	</g>
	<g id="Capa_5">
		<path class="st2" d="M1722.3,78.3c0,0-7.3-47.6-172-66.7s-264.4-19-355.4,33.3s-121.4,171.4-247.1,128.6s-141.3-71-221.1-104.8
			c-112.7-47.6-195,95.8-221.1,131.2s-60.7,140.2-39,178.3c21.7,38.1,56.3,123.8,43.3,157.1s-17.3,33.3-125.7,47.6
			s-182.1-33.3-234.1,14.3s-69.3,90.5-52,147.6s30.3,57.1,56.3,119s78,90.5,47.7,152.4s-72.8,14.3-104,90.5
			c-31.3,76.2-67.4,108-45.7,150.9s123.7,87.2,45.7,163.4c-78,76.2-108.4,85.7-95.4,138.1c13,52.4,30.3,125.5,30.3,125.5h1689.1
			L1722.3,78.3L1722.3,78.3z"/>
	</g>
	<g id="Capa_4" class="st0">
		<path class="st3" d="M-7987.9,1044.5c0,0,31.9-95.2,87-123.8s55.2-90.5,127.3-76.2s123.1,38.1,144.3,71.4s42.4,66.7,101.9,128.6
			s46.7,114.3,140,109.5c93.4-4.8,114.6,33.3,250.4-90.5c135.8-123.8,127.3-185,212.2-187.8s182.5,68.6,208,123.4
			c25.5,54.8,21.2,173.9,76.4,231s50.9,147.6,123.1,147.6c72.1,0,84.9-57.1,84.9-100s-46.7-119.1,0-167.7
			c37.7-39.3,102-51.3,152.8,24.9c50.8,76.2,50.9,119.1,34,166.7s-97.6,33.3-127.3,52.4s-38.2,28.6-38.2,71.4s4.2,128.6,42.4,157.1
			c38.2,28.6,84.9,52.4,148.5,57.1c63.7,4.8,136.4,52.4,144.9,90.5c8.5,38.1,33.4,71.4-30.3,133.3c-63.7,61.9-89.1,38.1-182.5,100
			c-93.4,61.9-97.6,100-76.4,138.1s42.4,66.7,97.6,104.8s46.7,120.7,46.7,120.7h-1767.6L-7987.9,1044.5L-7987.9,1044.5z"/>
	</g>
	<g id="Capa_3" class="st0">
		<path class="st4" d="M-1072.2-3681.2c0,0-28.6,124.8,33.3,172.4s81,38.1,52.4,104.8c-28.6,66.7-50.2,95.2,13,128.6
			s115.6,47.6,196.5,85.7s123.8,47.6,147.6,119.1s18.5,119.9,90.5,164.7s119,68.6,176.2,159.1c57.1,90.5,66.7,197.1,157.1,220
			c90.5,22.9,300-60.9,371.4,0s142.9,18.1,261.9-29.5c119-47.6,166.7-128.6,361.9-61.9c195.2,66.7,289,121.5,289,121.5v-1184.4
			L-1072.2-3681.2L-1072.2-3681.2z"/>
	</g>
	<g id="Capa_2_1_" class="st0">
		<path class="st5" d="M-7928-2508.8c0,0,64.3,109.5,154.8,128.6s181-14.3,195.2-33.3s76.2-133.3,138.1-138.1s76.2,19.1,114.3,61.9
			s14.3,119.1,0,147.6c-14.3,28.6-33.3,114.3-14.3,142.9c19,28.6,69.7,78.6,133.3,66.7c76.2-14.3,104.8-46.9,104.8-97.3
			s-14.3-117-81-155.1c-66.7-38.1-109.5-123.8-85.7-147.6s66.7-100,95.2-76.2c28.6,23.8,61.9,47.6,104.8,28.6s85.7-33.3,128.6,23.8
			c42.9,57.1,81,100,128.6,80.9s133.3-66.7,133.3-114.3s-38.1-185.7,0-219.1s47.6-100,147.6-100s133.3-9.5,176.2-28.6
			s85.7-114.3,90.5-152.4s0-52.4-19-123.8c-19-71.4-42.9-109.5-38.1-161.9s42.9-119.1,85.7-119.1c42.9,0,81,38.1,128.6,0
			c47.6-38.1,42.9-95.2,42.9-109.5l0-77.2c0,0,0,0,0,0H-7928L-7928-2508.8L-7928-2508.8z"/>
	</g>
	<g id="Capa_7" class="st0">
		
			<image style="display:inline;overflow:visible;enable-background:new    ;" width="50" height="50" xlink:href="9D599782.png"  transform="matrix(4.2527 0 0 4.2527 -3764.2058 1771.5515)">
		</image>
	</g>
	<g id="Capa_10" class="st0">
		
			<image style="display:inline;overflow:visible;enable-background:new    ;" width="50" height="50" xlink:href="9D599785.png"  transform="matrix(4.2527 0 0 4.2527 -4259.5605 1771.5515)">
		</image>
	</g>
	<g id="Capa_9" class="st0">
		
			<image style="display:inline;overflow:visible;enable-background:new    ;" width="50" height="50" xlink:href="9D599786.png"  transform="matrix(4.2527 0 0 4.2527 -2845.9534 1771.5515)">
		</image>
	</g>
	<g id="Capa_8" class="st0">
		
			<image style="display:inline;overflow:visible;enable-background:new    ;" width="50" height="50" xlink:href="9D599784.png"  transform="matrix(4.2527 0 0 4.2527 -3268.8508 1771.5515)">
		</image>
	</g>
</g>
<g id="Capa_4_1_">
</g>
<g id="Capa_2">
	<text transform="matrix(1 0 0 1 787.2032 962.7581)" class="st6 st7 st8">2 D</text>
	<text transform="matrix(0.6605 0 0 1 662.2548 1242.8807)" class="st6 st7 st9">ANIMACIÓN</text>
	<text transform="matrix(0.6605 0 0 1 658.9641 1224.6127)" class="st7 st9">ANIMACIÓN</text>
</g>
<g id="Capa_3_1_">
	<text transform="matrix(1 0 0 1 771.3911 925.3181)" class="st7 st8">2 D</text>
</g>
</svg>
