<svg id="Capa_1" data-name="Capa 1" xmlns="http://www.w3.org/2000/svg" viewBox="0 0 2157.4 1184.5"><defs><style>.cls-1{fill:#ffed00;}.cls-10,.cls-2,.cls-3,.cls-4,.cls-9{isolation:isolate;}.cls-10,.cls-3,.cls-4,.cls-9{font-size:196.2px;font-family:PermanentMarker-Regular, Permanent Marker;}.cls-3,.cls-4{fill:#c6b300;}.cls-3,.cls-9{letter-spacing:-0.18em;}.cls-5{letter-spacing:-0.04em;}.cls-6{letter-spacing:-0.03em;}.cls-7{letter-spacing:-0.02em;}.cls-8{letter-spacing:0em;}</style></defs><g id="Capa_1-2" data-name="Capa 1"><g id="Capa_3" data-name="Capa 3"><path class="cls-1" d="M6.6,0S-22,124.8,39.9,172.4s80.9,38.1,52.4,104.8-50.2,95.2,13,128.6,115.6,47.6,196.5,85.7,123.8,47.6,147.6,119.1,18.5,119.8,90.5,164.7,119,68.6,176.2,159.1,66.7,197.1,157.1,220,300-60.9,371.4,0,142.9,18.1,261.9-29.5,166.7-128.6,361.9-61.9,289,121.5,289,121.5V0Z" transform="translate(0 0)"/></g></g><g id="Capa_2" data-name="Capa 2"><g id="Capa_2-2" data-name="Capa 2"><g class="cls-2"><text class="cls-3" transform="translate(978.11 457.38) scale(0.66 1)"> </text><text class="cls-4" transform="translate(1001.88 457.38) scale(0.66 1)">I<tspan class="cls-5" x="101.17" y="0">L</tspan><tspan x="217.47" y="0">USTRA</tspan><tspan class="cls-6" x="850.73" y="0">C</tspan><tspan class="cls-7" x="964.73" y="0">I</tspan><tspan class="cls-8" x="1062.07" y="0">ÓN</tspan></text></g></g><g id="Capa_2-3" data-name="Capa 2"><g class="cls-2"><text class="cls-9" transform="translate(938.55 490.82) scale(0.66 1)"> </text><text class="cls-10" transform="translate(962.32 490.82) scale(0.66 1)">I<tspan class="cls-5" x="101.17" y="0">L</tspan><tspan x="217.47" y="0">USTRA</tspan><tspan class="cls-6" x="850.73" y="0">C</tspan><tspan class="cls-7" x="964.73" y="0">I</tspan><tspan x="1062.07" y="0">ÓN</tspan></text></g></g></g></svg>