<svg id="Capa_1" data-name="Capa 1" xmlns="http://www.w3.org/2000/svg" viewBox="0 0 1864.43 1550.4"><defs><style>.cls-1{fill:#e6332a;}.cls-2,.cls-3,.cls-5,.cls-7,.cls-8{isolation:isolate;}.cls-3,.cls-5,.cls-7,.cls-8{font-size:196.2px;font-family:PermanentMarker-Regular, Permanent Marker;}.cls-3,.cls-5{fill:#b71a16;}.cls-4{letter-spacing:-0.09em;}.cls-5,.cls-8{letter-spacing:-0.25em;}.cls-6{letter-spacing:-0.01em;}</style></defs><g id="Capa_2" data-name="Capa 2"><path class="cls-1" d="M0,1172.4S64.3,1281.9,154.8,1301s181-14.3,195.2-33.3,76.2-133.3,138.1-138.1,76.2,19.1,114.3,61.9,14.3,119.1,0,147.6-33.3,114.3-14.3,142.9,69.7,78.6,133.3,66.7c76.2-14.3,104.8-46.9,104.8-97.3s-14.3-117-81-155.1-109.5-123.8-85.7-147.6,66.7-100,95.2-76.2,61.9,47.6,104.8,28.6,85.7-33.3,128.6,23.8,80.9,100,128.6,80.9,133.3-66.7,133.3-114.3-38.1-185.7,0-219,47.6-100,147.6-100,133.3-9.5,176.2-28.6,85.7-114.3,90.5-152.4,0-52.4-19.1-123.8-42.9-109.5-38.1-161.9,42.9-119,85.7-119,80.9,38.1,128.6,0,42.9-95.2,42.9-109.5V.1H0Z" transform="translate(0 -0.1)"/></g><g id="Capa_2-2" data-name="Capa 2"><g class="cls-2"><text class="cls-3" transform="translate(275.54 487.48) scale(0.66 1)"><tspan class="cls-4">D</tspan><tspan x="97.91" y="0">ISEÑO </tspan></text><text class="cls-5" transform="translate(807.71 487.48) scale(0.66 1)"> </text><text class="cls-3" transform="translate(822.44 487.48) scale(0.66 1)"><tspan class="cls-6">d</tspan><tspan x="95.61" y="0">e marca </tspan></text><text class="cls-3" transform="translate(275.54 722.88) scale(0.66 1)">y ux/ui</text></g></g><g id="Capa_2-3" data-name="Capa 2"><g class="cls-2"><text class="cls-7" transform="translate(249.75 451.94) scale(0.66 1)"><tspan class="cls-4">D</tspan><tspan x="97.91" y="0">ISEÑO </tspan></text><text class="cls-8" transform="translate(781.92 451.94) scale(0.66 1)"> </text><text class="cls-7" transform="translate(796.65 451.94) scale(0.66 1)"><tspan class="cls-6">d</tspan><tspan x="95.61" y="0">e marca </tspan></text><text class="cls-7" transform="translate(249.75 687.34) scale(0.66 1)">y ux/ui</text></g></g></svg>