<?xml version="1.0" encoding="utf-8"?>
<!-- Generator: Adobe Illustrator 24.3.0, SVG Export Plug-In . SVG Version: 6.00 Build 0)  -->
<svg version="1.1" id="Capa_1" xmlns="http://www.w3.org/2000/svg" xmlns:xlink="http://www.w3.org/1999/xlink" x="0px" y="0px"
	 viewBox="0 0 991.2 1113.2" style="enable-background:new 0 0 991.2 1113.2;" xml:space="preserve">
<style type="text/css">
	.st0{display:none;}
	.st1{display:inline;fill:#FF16AB;}
	.st2{display:inline;fill:#009FE3;}
	.st3{display:inline;fill:#009640;}
	.st4{display:inline;fill:#FFED00;}
	.st5{display:inline;fill:#E6332A;}
	.st6{font-family:'PermanentMarker-Regular';}
	.st7{font-size:92.723px;}
</style>
<g id="Capa_6" class="st0">
	<rect x="-1545.1" y="1577.5" class="st1" width="4081.9" height="1891.4"/>
</g>
<g id="Capa_1_1_">
	
		<image style="overflow:visible;enable-background:new    ;" width="200" height="200" xlink:href="BC04280B.png"  transform="matrix(4.9535 0 0 4.9535 0.235 -8.073945e-05)">
	</image>
</g>
<g id="Capa_5" class="st0">
	<path class="st2" d="M5876,3479.6c0,0-7.3-47.6-172-66.7c-164.7-19.1-264.4-19.1-355.4,33.3c-91,52.4-121.4,171.4-247.1,128.6
		s-141.3-71.1-221.1-104.8c-112.7-47.6-195,95.8-221.1,131.2s-60.7,140.2-39,178.3c21.7,38.1,56.4,123.8,43.3,157.1
		c-13,33.3-17.3,33.3-125.7,47.6c-108.4,14.3-182-33.3-234.1,14.3c-52,47.6-69.4,90.5-52,147.6c17.3,57.1,30.3,57.1,56.4,119
		s78,90.5,47.7,152.4s-72.8,14.3-104,90.5c-31.3,76.2-67.4,108-45.7,150.9c21.7,42.9,123.7,87.2,45.7,163.4s-108.4,85.7-95.4,138.1
		c13,52.4,30.3,125.5,30.3,125.5H5876L5876,3479.6L5876,3479.6z"/>
</g>
<g id="Capa_4" class="st0">
	<path class="st3" d="M-3834.2,4445.8c0,0,31.9-95.2,87-123.8s55.2-90.5,127.3-76.2c72.1,14.3,123.1,38.1,144.3,71.4
		s42.4,66.7,101.9,128.6s46.7,114.3,140.1,109.5c93.4-4.8,114.6,33.3,250.4-90.5s127.3-185,212.2-187.8
		c84.9-2.7,182.5,68.6,207.9,123.4s21.2,173.9,76.4,231s50.9,147.6,123.1,147.6c72.1,0,84.9-57.1,84.9-100s-46.7-119,0-167.7
		c37.7-39.3,102-51.3,152.8,24.9s50.9,119,33.9,166.7s-97.6,33.3-127.3,52.4s-38.2,28.6-38.2,71.4s4.2,128.6,42.4,157.1
		c38.2,28.6,84.9,52.4,148.5,57.1c63.7,4.8,136.4,52.4,144.9,90.5s33.4,71.4-30.3,133.3c-63.7,61.9-89.1,38.1-182.5,100
		c-93.4,61.9-97.6,100-76.4,138.1c21.2,38.1,42.4,66.7,97.6,104.8c55.2,38.1,46.7,120.7,46.7,120.7h-1767.6L-3834.2,4445.8
		L-3834.2,4445.8z"/>
</g>
<g id="Capa_3" class="st0">
	<path class="st4" d="M3081.6-279.9c0,0-28.6,124.8,33.3,172.4s80.9,38.1,52.4,104.8c-28.6,66.7-50.2,95.2,13,128.6
		s115.6,47.6,196.5,85.7s123.8,47.6,147.6,119.1s18.5,119.9,90.5,164.7c72,44.8,119.1,68.6,176.2,159.1s66.7,197.1,157.1,220
		c90.5,22.8,300-61,371.4,0s142.9,18.1,261.9-29.5c119-47.6,166.7-128.6,361.9-61.9c195.2,66.7,289,121.5,289,121.5V-279.9H3081.6z"
		/>
</g>
<g id="Capa_2_1_" class="st0">
	<path class="st5" d="M-3774.2,892.6c0,0,64.3,109.5,154.8,128.6s180.9-14.3,195.2-33.3c14.3-19,76.2-133.3,138.1-138.1
		s76.2,19,114.3,61.9c38.1,42.9,14.3,119,0,147.6s-33.3,114.3-14.3,142.9c19.1,28.6,69.7,78.6,133.3,66.7
		c76.2-14.3,104.8-46.9,104.8-97.3c0-50.3-14.3-117-80.9-155.1c-66.7-38.1-109.5-123.8-85.7-147.6s66.7-100,95.2-76.2
		s61.9,47.6,104.8,28.6s85.7-33.3,128.6,23.8s80.9,100,128.6,81s133.3-66.7,133.3-114.3s-38.1-185.7,0-219
		c38.1-33.3,47.6-100,147.6-100s133.3-9.5,176.2-28.6c42.9-19,85.7-114.3,90.5-152.4s0-52.4-19.1-123.8s-42.9-109.5-38.1-161.9
		s42.9-119.1,85.7-119.1c42.9,0,80.9,38.1,128.6,0c47.6-38.1,42.9-95.2,42.9-109.5l0-77.2c0,0,0,0,0,0h-1864.3L-3774.2,892.6
		L-3774.2,892.6z"/>
</g>
<g id="Capa_7" class="st0">
	
		<image style="display:inline;overflow:visible;enable-background:new    ;" width="50" height="50" xlink:href="BC042809.png"  transform="matrix(4.2527 0 0 4.2527 389.4976 5172.8872)">
	</image>
</g>
<g id="Capa_10" class="st0">
	
		<image style="display:inline;overflow:visible;enable-background:new    ;" width="50" height="50" xlink:href="BC04280F.png"  transform="matrix(4.2527 0 0 4.2527 -105.8574 5172.8872)">
	</image>
</g>
<g id="Capa_9" class="st0">
	
		<image style="display:inline;overflow:visible;enable-background:new    ;" width="50" height="50" xlink:href="BC042808.png"  transform="matrix(4.2527 0 0 4.2527 1307.7499 5172.8872)">
	</image>
</g>
<g id="Capa_8" class="st0">
	
		<image style="display:inline;overflow:visible;enable-background:new    ;" width="50" height="50" xlink:href="BC042806.png"  transform="matrix(4.2527 0 0 4.2527 884.8525 5172.8872)">
	</image>
</g>
<text transform="matrix(1 0 0 1 264.1398 1075.275)" class="st6 st7">Sobre mi...</text>
</svg>
